<svg xmlns="http://www.w3.org/2000/svg" width="50" height="50">
  <path fill="none" d="M-1-1h202v202H-1z"/>
  <g>
    <g stroke="null">
      <path fill="#5C546A" d="M35.2 10.4l2.6 1.5c5 2 8.5 6.2 9.5 11.3.5 2.5.4 5-.4 7.3 1-3 1.3-6 .7-9.3-2-10.7-14-17.4-27-15-4.8 1-9 3.2-12.4 6 2.8-2.3 6.4-4 10.4-4.7 6-1.2 12 0 16.5 2.8zM13.8 41.2c-1-.4-1.7-1-2.5-1.4-5-2.2-8.6-6.3-9.6-11.4-.6-3.4 0-6.7 1.5-9.7-2 3.6-2.7 7.6-2 11.6 2 10.7 14.2 17.4 27 15 3.8-.8 7.3-2.3 10.2-4.2-2.4 1.5-5 2.6-8 3-6.2 1.3-12.2 0-16.6-2.8z"/>
      <path fill="#5DCFBC" d="M11.3 39.8c-3.6-2.3-6.2-5.8-7-10-.7-3.6 0-7 1.6-10.2 1-2 2.4-4 4.4-5.5 3-2.4 6.6-4.2 10.8-5 5-1 10-.4 14 1.4-4.4-2.8-10.4-4-16.5-2.8-4 .7-7.6 2.4-10.4 4.7-2.2 1.8-4 4-5 6.4-1.7 3-2.2 6.3-1.6 9.7 1 5 4.6 9.2 9.6 11.4z"/>
      <path fill="#ff7f00" d="M35.2 10.4c-4-1.8-9-2.4-14-1.5-4.2.8-8 2.6-10.8 5 2.4-2 5.4-3.3 8.8-4 2.6-.5 5.2-.5 7.5 0 4-.3 7.8.4 11 2-.7-.7-1.6-1-2.5-1.6zM6 19.6C4 22.6 3.5 26.2 4 29.8c1 4.2 3.5 7.7 7 10l2.6 1.4c-3-2-5-4.5-6.3-7.6C6 32 5 30 4.7 27.8 4.2 25 4.7 22 6 19.6z"/>
      <path fill="#74749B" d="M47 30.6c.6-2.4.8-4.8.3-7.3-1-5-4.6-9.2-9.5-11.4-3.3-1.6-7-2.3-11-2 2.4.4 4.7 1.3 6.6 2.6 1 .4 1.7 1 2.5 1.4 4.2 2 7.4 5.4 8.3 9.8 1.5 8-5 16-14.5 17.8-5.3 1-10.5 0-14.3-2.6L13 37.6c-2-1-4-2.3-5.5-4 1.2 3 3.4 5.7 6.3 7.6 4.4 3 10.4 4 16.6 3 3-.6 5.6-1.7 8-3 4.2-2.7 7.2-6.5 8.5-10.7z"/>
      <path fill="#FFF" d="M27.3 40.2c-4.2.8-8.3.3-11.7-1.2 3.7 2.6 9 3.6 14.2 2.6 9.5-2 16-9.8 14.5-17.8-1-4.4-4-8-8.4-9.8 3 2 5 5 5.7 8.5 1.6 8-5 16-14.4 17.7z"/>
      <path fill="#FFF294" d="M10.4 14c-2 1.6-3.5 3.5-4.5 5.6C4.5 22 4 25 4.6 27.8c.4 2.2 1.4 4 2.8 5.8 1.5 1.7 3.4 3 5.6 4-3-2-5-5-5.8-8.4-1.5-8 5-16 14.5-17.8 4.2-.8 8.3-.3 11.7 1.2-2-1.3-4.2-2.2-6.7-2.6-2.3-.5-5-.5-7.5 0-3.4.7-6.4 2-8.8 4z"/>
      <path fill="#39394A" d="M7.2 29.2c.7 3.5 3 6.4 5.8 8.4.8.6 1.7 1 2.6 1.4 3.4 1.5 7.5 2 11.7 1.2 9.5-1.8 16-9.8 14.4-17.7C41 19 39 16 36 14l-2.6-1.4c-3.4-1.5-7.5-2-11.7-1.2-9.5 2-16 9.8-14.5 17.8z"/>
    </g>
  </g>
</svg>
