<svg xmlns="http://www.w3.org/2000/svg" width="80" height="100">
  <path fill="none" d="M-1-1h82v102H-1z"/>
  <g>
    <g stroke="null">
      <path fill="#FECD57" d="M77.7 40.2c0 20.2-16.4 36.6-36.7 36.6-20.3 0-36.8-16.4-36.8-36.6C4.2 20 20.7 3.5 41 3.5c20.3 0 36.7 16.4 36.7 36.7z"/>
      <path fill="#9ED36A" d="M53.6 31.6l-9.3 2.8-8 7V50l3.3 7.4 8.5 2.3 9.7-3.5 5-10.6V29.3z"/>
      <path fill="#8AC054" d="M36.3 50.4L37 40l-3-1.3-12.3-2.5.6 10 3 7.2 4 3.7 5.4 1.6 3.5-2z"/>
      <path fill="#CBD0D8" d="M29.2 76.5h20.4v17.3H29.2z"/>
      <path d="M79.5 40.3C79.5 18.6 61.8 1 40 1S.5 18.6.5 40.3C.5 58 12 72.7 28 77.8h-.4-.2c-1 .3-1.8 1.4-1.5 2.5 0 1 1 1.5 1.8 1.6v3.8h-.2-.2c-1 .4-1.8 1.5-1.5 2.6 0 1 1 1.5 1.8 1.5v4h-.2-.2c-1 .2-1.8 1.3-1.5 2.4.2 1 1.2 1.7 2.2 1.5l9.7-1.5v.2c0 1 1 2 2.2 1.8 1 0 2-1 1.8-2.2V96l10.4-1.7h.2c1-.3 1.7-1.4 1.5-2.5-.2-1-1-1.5-1.8-1.5v-4h.4c1-.3 1.7-1.4 1.5-2.5-.2-1-1-1.5-1.8-1.6v-4.5c15.8-5 27.3-20 27.3-37.4zM15 65.3c-3.3-3.3-5.8-7-7.6-11.2-2-4.3-2.8-9-2.8-13.7 0-4.7 1-9.3 2.8-13.7 1.8-4.2 4.3-8 7.6-11.2 3.2-3.2 7-5.8 11.2-7.6C30.6 6 35.2 5 40 5c4.8 0 9.4 1 13.8 2.8 4.2 1.8 8 4.4 11.2 7.6 3.3 3.2 5.8 7 7.6 11.2 1.8 4.4 2.8 9 2.8 13.7 0 4.8-1 9.4-2.8 13.8-1.8 4.3-4.3 8-7.6 11.3-3.2 3.2-7 5.8-11.2 7.5-3 1.3-6.2 2-9.4 2.5H44c-1.2.2-2.6.3-4 .3h-1.2C37.6 70 38 64.3 40.3 59c2.4 1.6 5.2 2.4 8 2.4 4.5 0 9-2 11.8-5.8 8.3-10.6 4.7-30.2 4.7-30.2S45.7 27 37 36.8C30.8 33.4 22.3 33 19.6 33h-1s-1 15.6 6.4 23c2.2 2.4 5.2 3.5 8.2 3.5 1 0 1.8 0 2.7-.3-.4.8-.6 1.5-.8 2.3-1.2 4.5-1.4 9-.6 13.7-3-.4-5.7-1.2-8.4-2.4-4.2-1.7-8-4.3-11.2-7.5zM53 43c.6-.5 1-1.3.8-2-.2-1.2-1.3-2-2.4-1.8-.3 0-.5.2-.8.4-.2 0-5.3 3.6-9.8 10L39 52.2c-.6-1.3-1-2.7-1.3-4.2-.4-3 .4-5.7 2-8 3.6-4.6 10-7.2 15-8.6 2.4-.7 4.7-1 6.5-1.4 0 1.8.3 4 .2 6.6 0 5-1 12-4.5 16.5-2 2.8-5.3 4.3-8.7 4.3-2.2 0-4.4-.7-6.3-2l2-3.2c4-5.7 9-9 9-9zm-19.5 3l-1-1.2c-.5-.4-1-.6-1.5-.7-1.2 0-2 1-2.2 2 0 .6.2 1 .5 1.5C31.6 50 34 53 35.6 55c-.8.3-1.6.5-2.4.5-2 0-4-.8-5.4-2.3-2.3-2.4-4-6.5-4.7-11.8 0-1.5-.3-3-.3-4 1.7 0 3.7.3 5.8.7 2.5.7 4.6 1.4 6.4 2.3-1 1.8-1.4 3.8-1.5 5.8zM48 91L32 93.3v-4L48 87v3.8zm0-8L32 85.2v-4l13-1.8 3.3-.6v4z"/>
    </g>
  </g>
</svg>
